<?xml version="1.0" encoding="utf-8"?>
<!-- Generator: Adobe Illustrator 23.0.4, SVG Export Plug-In . SVG Version: 6.00 Build 0)  -->
<svg version="1.1" id="Layer_1" xmlns="http://www.w3.org/2000/svg" xmlns:xlink="http://www.w3.org/1999/xlink" x="0px" y="0px"
	 viewBox="0 0 2238.59 605.47" style="enable-background:new 0 0 2238.59 605.47;" xml:space="preserve">
<style type="text/css">
	.st0{font-family:'AvenirNext-Medium';}
	.st1{font-size:238.4928px;}
	.st2{letter-spacing:7;}
	.st3{fill:#555555;}
	.st4{fill:none;}
	.st5{fill:#70CACB;}
	.st6{fill:#FDB714;}
	.st7{fill:#67963A;}
	.st8{fill:#00B18F;}
	.st9{fill:#D6C152;}
	.st10{fill:#70A095;}
	.st11{fill:#038062;}
	.st12{font-family:'Baskerville';}
	.st13{font-size:75.8321px;}
</style>
<g>
	<text transform="matrix(1 0 0 1 792.602 344.5915)"><tspan x="0" y="0" class="st0 st1 st2">AID</tspan><tspan x="437.15" y="0" class="st3 st0 st1 st2">DATA</tspan></text>
	<g>
		<g>
			<polygon class="st4" points="551.39,172.3 479.94,172.3 515.67,226.94 			"/>
			<polygon class="st4" points="479.94,172.3 367.3,172.3 367.3,344.59 423.62,258.44 			"/>
			<polygon class="st4" points="621.96,172.3 551.39,172.3 586.67,226.26 			"/>
			<polygon class="st4" points="621.96,172.3 678.28,258.44 734.6,344.59 734.6,172.3 			"/>
			<g>
				<g>
					<g>
						<polygon class="st5" points="678.28,258.44 621.96,172.3 586.67,226.26 607.71,258.44 664.03,344.59 734.6,344.59 						"/>
					</g>
				</g>
			</g>
			<g>
				<g>
					<g>
						<polygon class="st6" points="551.39,172.3 515.67,226.94 536.26,258.44 550.95,280.91 565.64,258.44 586.67,226.26 						"/>
					</g>
				</g>
			</g>
			<g>
				<g>
					<g>
						<polygon class="st7" points="607.71,258.44 586.67,226.26 565.64,258.44 550.95,280.91 592.59,344.59 621.96,344.59 
							664.03,344.59 						"/>
					</g>
				</g>
			</g>
			<polygon class="st8" points="515.67,226.94 479.94,172.3 423.62,258.44 367.3,344.59 438.75,344.59 495.07,258.44 			"/>
			<polygon class="st9" points="536.26,258.44 515.67,226.94 495.07,258.44 438.75,344.59 479.94,344.59 509.31,344.59 
				550.95,280.91 			"/>
			<polygon class="st10" points="509.31,344.59 551.39,344.59 592.59,344.59 550.95,280.91 			"/>
		</g>
		<text transform="matrix(1 0 0 1 792.601 433.1735)" class="st11 st12 st13">A Research Lab at William &amp; Mary</text>
	</g>
	<rect x="853.01" class="st4" width="58" height="172.3"/>
	<rect x="795.01" y="433.17" class="st4" width="58" height="172.3"/>
	<rect y="172.3" class="st4" width="367.3" height="172.3"/>
	<rect x="1871.29" y="172.3" class="st4" width="367.3" height="172.3"/>
</g>
</svg>
