<?xml version="1.0" encoding="utf-8"?>
<!-- Generator: Adobe Illustrator 23.0.1, SVG Export Plug-In . SVG Version: 6.00 Build 0)  -->
<svg version="1.1" id="Layer_1" xmlns="http://www.w3.org/2000/svg" xmlns:xlink="http://www.w3.org/1999/xlink" x="0px" y="0px"
	 viewBox="0 0 746.2 201.82" style="enable-background:new 0 0 746.2 201.82;" xml:space="preserve">
<style type="text/css">
	.st0{fill:#FFFFFF;}
	.st1{font-family:'AvenirNext-Medium';}
	.st2{font-size:79.4976px;}
	.st3{letter-spacing:2;}
	.st4{fill:none;}
	.st5{fill:#70CACB;}
	.st6{fill:#FDB714;}
	.st7{fill:#67963A;}
	.st8{fill:#00B18F;}
	.st9{fill:#D6C152;}
	.st10{fill:#70A095;}
	.st11{font-family:'Baskerville';}
	.st12{font-size:25.2774px;}
</style>
<g>
	<g>
		<text transform="matrix(1 0 0 1 264.2006 114.8637)" class="st0 st1 st2 st3">AIDDATA</text>
		<g>
			<g>
				<polygon class="st4" points="183.8,57.43 159.98,57.43 171.89,75.65 				"/>
				<polygon class="st4" points="159.98,57.43 122.43,57.43 122.43,114.86 141.21,86.15 				"/>
				<polygon class="st4" points="207.32,57.43 183.8,57.43 195.56,75.42 				"/>
				<polygon class="st4" points="207.32,57.43 226.09,86.15 244.87,114.86 244.87,57.43 				"/>
				<g>
					<g>
						<g>
							<polygon class="st5" points="226.09,86.15 207.32,57.43 195.56,75.42 202.57,86.15 221.34,114.86 244.87,114.86 							"/>
						</g>
					</g>
				</g>
				<g>
					<g>
						<g>
							<polygon class="st6" points="183.8,57.43 171.89,75.65 178.75,86.15 183.65,93.64 188.55,86.15 195.56,75.42 							"/>
						</g>
					</g>
				</g>
				<g>
					<g>
						<g>
							<polygon class="st7" points="202.57,86.15 195.56,75.42 188.55,86.15 183.65,93.64 197.53,114.86 207.32,114.86 
								221.34,114.86 							"/>
						</g>
					</g>
				</g>
				<polygon class="st8" points="171.89,75.65 159.98,57.43 141.21,86.15 122.43,114.86 146.25,114.86 165.02,86.15 				"/>
				<polygon class="st9" points="178.75,86.15 171.89,75.65 165.02,86.15 146.25,114.86 159.98,114.86 169.77,114.86 183.65,93.64 
									"/>
				<polygon class="st10" points="169.77,114.86 183.8,114.86 197.53,114.86 183.65,93.64 				"/>
			</g>
			<text transform="matrix(1 0 0 1 264.1997 144.3915)" class="st0 st11 st12">A Research Lab at William &amp; Mary</text>
		</g>
	</g>
	<rect x="284.34" class="st4" width="19.33" height="57.43"/>
	<rect x="265" y="144.39" class="st4" width="19.33" height="57.43"/>
	<rect y="57.43" class="st4" width="122.43" height="57.43"/>
	<rect x="623.76" y="57.43" class="st4" width="122.43" height="57.43"/>
</g>
</svg>
